<svg width="35" height="35" viewBox="0 0 35 35" fill="none" xmlns="http://www.w3.org/2000/svg">
<rect width="35" height="35" fill="#0A2533"/>
<path d="M20.2 8.875C18.9734 8.875 17.797 9.36228 16.9296 10.2296C16.0623 11.097 15.575 12.2734 15.575 13.5V16.075H13.1C12.9757 16.075 12.875 16.1757 12.875 16.3V19.7C12.875 19.8243 12.9757 19.925 13.1 19.925H15.575V26.9C15.575 27.0243 15.6757 27.125 15.8 27.125H19.2C19.3243 27.125 19.425 27.0243 19.425 26.9V19.925H21.9219C22.0252 19.925 22.1152 19.8547 22.1402 19.7546L22.9902 16.3546C23.0257 16.2126 22.9183 16.075 22.7719 16.075H19.425V13.5C19.425 13.2945 19.5067 13.0973 19.652 12.952C19.7973 12.8067 19.9945 12.725 20.2 12.725H22.8C22.9243 12.725 23.025 12.6243 23.025 12.5V9.1C23.025 8.97574 22.9243 8.875 22.8 8.875H20.2Z" fill="white"/>
</svg>
