<svg width="35" height="35" viewBox="0 0 35 35" fill="none" xmlns="http://www.w3.org/2000/svg">
<rect width="35" height="35" fill="#0A2533"/>
<path d="M27.8098 12.2272C27.8677 12.1465 27.7821 12.0422 27.6894 12.0781C27.0307 12.3334 26.3423 12.5057 25.64 12.5906C26.4219 12.1235 27.0253 11.4124 27.3599 10.5705C27.394 10.4848 27.3003 10.4082 27.2195 10.4528C26.4928 10.8541 25.7091 11.1431 24.8949 11.3096C24.8608 11.3165 24.8257 11.3049 24.8018 11.2797C24.1908 10.635 23.3866 10.2058 22.5098 10.0575C21.6147 9.90601 20.6946 10.056 19.8938 10.4838C19.0931 10.9116 18.457 11.5931 18.0853 12.4214C17.7319 13.209 17.6365 14.0869 17.8108 14.93C17.8243 14.9955 17.7731 15.0572 17.7065 15.0531C16.1224 14.9547 14.5747 14.5334 13.1587 13.8145C11.7463 13.0974 10.4955 12.0998 9.48267 10.8833C9.43772 10.8293 9.35252 10.8363 9.31977 10.8984C9.0046 11.4965 8.83958 12.1631 8.84003 12.8406C8.83875 13.515 9.00425 14.1792 9.32178 14.7742C9.63932 15.3691 10.099 15.8763 10.66 16.2506C10.0651 16.2344 9.48178 16.0873 8.95128 15.8207C8.88291 15.7863 8.8009 15.8352 8.80446 15.9117C8.84583 16.8009 9.17228 17.6936 9.73734 18.3786C10.3387 19.1074 11.1733 19.6062 12.1 19.7906C11.7433 19.8992 11.3729 19.9564 11 19.9606C10.7971 19.9582 10.5945 19.9433 10.3936 19.9158C10.319 19.9056 10.2582 19.9764 10.2843 20.0469C10.5607 20.7944 11.049 21.4467 11.6911 21.9228C12.3776 22.4318 13.2056 22.7142 14.06 22.7306C12.6172 23.8659 10.8359 24.4855 9.00003 24.4906C8.81138 24.4912 8.62282 24.4851 8.43471 24.4723C8.3287 24.4651 8.27995 24.6063 8.37132 24.6605C10.1601 25.7221 12.2046 26.2831 14.29 26.2806C15.8297 26.2966 17.3572 26.0056 18.7831 25.4247C20.2091 24.8437 21.5051 23.9845 22.5952 22.8971C23.6854 21.8097 24.548 20.516 25.1326 19.0915C25.7172 17.667 26.0121 16.1403 26 14.6006V14.1208C26 14.0892 26.015 14.0595 26.0402 14.0405C26.7184 13.5283 27.3149 12.9169 27.8098 12.2272Z" fill="white"/>
</svg>
