<svg width="35" height="35" viewBox="0 0 35 35" fill="none" xmlns="http://www.w3.org/2000/svg">
<rect width="35" height="35" fill="#0A2533"/>
<path d="M25.6607 16.2C25.7562 16.2 25.8386 16.2674 25.8553 16.3614C25.949 16.8872 26 17.453 26 18C26 20.3056 25.1329 22.4088 23.707 24.0013C23.6358 24.0807 23.5145 24.0877 23.4331 24.0188L20.9875 21.9488C20.8983 21.8734 20.8928 21.7382 20.9717 21.6522C21.4586 21.1215 21.8409 20.4931 22.0864 19.8H17.2C17.0895 19.8 17 19.7105 17 19.6V16.4C17 16.2895 17.0895 16.2 17.2 16.2H25.6607Z" fill="white"/>
<path d="M19.4727 22.8001C19.5463 22.7619 19.6359 22.7706 19.6992 22.8241L22.2668 24.9969C22.3643 25.0794 22.3606 25.231 22.257 25.3057C20.778 26.3719 18.9623 27 17 27C13.8381 27 11.0568 25.3691 9.4515 22.9027C9.39545 22.8166 9.41626 22.7022 9.49766 22.6395L12.043 20.6784C12.141 20.6029 12.2832 20.6338 12.3461 20.7404C13.2855 22.3321 15.0181 23.4 17 23.4C17.8919 23.4 18.7324 23.1834 19.4727 22.8001Z" fill="white"/>
<path d="M11.6791 18.9261C11.692 19.0009 11.6636 19.0771 11.6035 19.1234L8.86891 21.2304C8.76421 21.311 8.61142 21.2698 8.56521 21.1459C8.19977 20.1666 8 19.1066 8 18C8 16.8475 8.21668 15.7455 8.61153 14.7326C8.65843 14.6124 8.8066 14.5715 8.91071 14.6479L11.6428 16.6515C11.7078 16.6992 11.7375 16.7812 11.7206 16.8601C11.6416 17.2275 11.6 17.6089 11.6 18C11.6 18.3158 11.6271 18.6252 11.6791 18.9261Z" fill="white"/>
<path d="M12.1471 15.1613C12.243 15.2316 12.3785 15.203 12.4423 15.1027C13.4009 13.5981 15.084 12.6 17 12.6C18.3087 12.6 19.5052 13.0694 20.4394 13.8446C20.5209 13.9123 20.6409 13.9091 20.7158 13.8342L22.9816 11.5684C23.0617 11.4883 23.0595 11.3577 22.975 11.2824C21.3853 9.8667 19.2961 9 17 9C13.8801 9 11.1308 10.5878 9.51617 12.9993C9.45746 13.087 9.47961 13.205 9.5647 13.2674L12.1471 15.1613Z" fill="white"/>
</svg>
