<svg width="35" height="35" viewBox="0 0 35 35" fill="none" xmlns="http://www.w3.org/2000/svg">
<rect width="35" height="35" fill="#0A2533"/>
<path d="M16.9999 14.75C15.205 14.75 13.7499 16.2051 13.7499 18C13.7499 19.7949 15.205 21.25 16.9999 21.25C18.7949 21.25 20.2499 19.7949 20.2499 18C20.2499 16.2051 18.7949 14.75 16.9999 14.75Z" fill="white"/>
<path fill-rule="evenodd" clip-rule="evenodd" d="M11.7695 9.08145C15.2176 8.69607 18.7823 8.69607 22.2304 9.08145C24.1288 9.29363 25.66 10.7894 25.8828 12.6945C26.2951 16.2195 26.2951 19.7805 25.8828 23.3055C25.66 25.2106 24.1288 26.7063 22.2304 26.9185C18.7823 27.3039 15.2176 27.3039 11.7695 26.9185C9.87108 26.7063 8.33989 25.2106 8.11707 23.3055C7.70479 19.7805 7.70479 16.2195 8.11707 12.6945C8.33989 10.7894 9.87108 9.29363 11.7695 9.08145ZM21.9999 12C21.4477 12 20.9999 12.4477 20.9999 13C20.9999 13.5523 21.4477 14 21.9999 14C22.5522 14 22.9999 13.5523 22.9999 13C22.9999 12.4477 22.5522 12 21.9999 12ZM12.2499 18C12.2499 15.3766 14.3766 13.25 16.9999 13.25C19.6233 13.25 21.7499 15.3766 21.7499 18C21.7499 20.6233 19.6233 22.75 16.9999 22.75C14.3766 22.75 12.2499 20.6233 12.2499 18Z" fill="white"/>
</svg>
