<svg width="122" height="54" viewBox="0 0 122 54" fill="none" xmlns="http://www.w3.org/2000/svg">
<path d="M36.2049 15.808C36.0555 17.984 35.6289 19.8827 34.9249 21.504C34.2209 23.104 33.3675 24.448 32.3649 25.536C31.3835 26.624 30.3169 27.4347 29.1649 27.968C28.0342 28.5013 26.9569 28.768 25.9329 28.768C25.1435 28.768 24.3862 28.5973 23.6609 28.256C22.9569 27.9147 22.3382 27.4027 21.8049 26.72C21.2929 26.016 20.8875 25.1413 20.5889 24.096C20.2902 23.0507 20.1409 21.824 20.1409 20.416C20.1409 17.664 20.5355 15.264 21.3249 13.216C22.1142 11.168 23.1062 9.46133 24.3009 8.096C25.5169 6.73067 26.8075 5.71733 28.1729 5.056C29.5595 4.39467 30.8502 4.064 32.0449 4.064C32.8982 4.064 33.6342 4.21333 34.2529 4.512C34.8929 4.81067 35.4155 5.216 35.8209 5.728C36.2262 6.21867 36.5142 6.80533 36.6849 7.488C36.8769 8.14933 36.9729 8.85333 36.9729 9.6L32.5889 10.432C32.3969 9.57867 32.1409 8.97067 31.8209 8.608C31.5009 8.24533 31.1382 8.064 30.7329 8.064C30.1995 8.064 29.6129 8.448 28.9729 9.216C28.3329 9.96267 27.7355 10.9333 27.1809 12.128C26.6262 13.3227 26.1569 14.6347 25.7729 16.064C25.3889 17.4933 25.1755 18.9013 25.1329 20.288C25.1329 21.6107 25.3249 22.56 25.7089 23.136C26.1142 23.6907 26.6262 23.968 27.2449 23.968C27.6715 23.968 28.1089 23.8613 28.5569 23.648C29.0262 23.4347 29.4422 23.136 29.8049 22.752C30.1675 22.3467 30.4662 21.888 30.7009 21.376C30.9569 20.8427 31.0955 20.2667 31.1169 19.648L27.6929 20.16L28.3009 16.992C29.3035 16.864 30.2849 16.736 31.2449 16.608C32.0555 16.5013 32.9089 16.3733 33.8049 16.224C34.7222 16.0747 35.5222 15.936 36.2049 15.808ZM34.8936 28.032C35.4696 25.1947 36.0243 22.4213 36.5576 19.712C36.7496 18.56 36.963 17.3653 37.1976 16.128C37.4323 14.8693 37.6456 13.632 37.8376 12.416C38.051 11.1787 38.243 9.99467 38.4136 8.864C38.6056 7.712 38.755 6.66667 38.8616 5.728C40.0776 5.344 41.3896 5.06667 42.7976 4.896C44.2056 4.704 45.603 4.608 46.9896 4.608C47.8216 4.608 48.5043 4.704 49.0376 4.896C49.5923 5.088 50.019 5.36533 50.3176 5.728C50.6376 6.06933 50.8616 6.47467 50.9896 6.944C51.1176 7.41333 51.1816 7.936 51.1816 8.512C51.1816 9.36533 51.0323 10.208 50.7336 11.04C50.435 11.8507 50.0296 12.6293 49.5176 13.376C49.027 14.1013 48.451 14.7733 47.7896 15.392C47.1496 15.9893 46.4563 16.48 45.7096 16.864C46.0936 17.7173 46.499 18.656 46.9256 19.68C47.3736 20.6827 47.7896 21.6427 48.1736 22.56C48.6003 23.6267 49.0376 24.6933 49.4856 25.76L44.5256 27.488C44.099 26.016 43.715 24.6293 43.3736 23.328C43.2243 22.7947 43.075 22.2507 42.9256 21.696C42.7763 21.12 42.6376 20.5867 42.5096 20.096C42.3816 19.584 42.275 19.136 42.1896 18.752C42.1043 18.368 42.051 18.0693 42.0296 17.856L41.6136 17.984C41.4856 18.6667 41.3256 19.4987 41.1336 20.48C40.963 21.4613 40.803 22.4107 40.6536 23.328C40.4616 24.416 40.2696 25.536 40.0776 26.688L34.8936 28.032ZM42.4136 14.144C42.819 14.1013 43.3096 13.9307 43.8856 13.632C44.483 13.3333 45.0483 12.9813 45.5816 12.576C46.115 12.1493 46.5736 11.712 46.9576 11.264C47.3416 10.816 47.5336 10.4213 47.5336 10.08C47.5336 9.84533 47.459 9.664 47.3096 9.536C47.1603 9.38667 46.947 9.28 46.6696 9.216C46.4136 9.13067 46.1256 9.07733 45.8056 9.056C45.4856 9.03467 45.155 9.024 44.8136 9.024C44.579 9.024 44.3336 9.03467 44.0776 9.056C43.843 9.056 43.6296 9.056 43.4376 9.056L42.4136 14.144ZM54.0404 27.36C53.8484 27.36 53.475 27.392 52.9204 27.456C52.3657 27.4987 51.7897 27.5627 51.1924 27.648C50.595 27.712 50.051 27.776 49.5604 27.84C49.091 27.904 48.835 27.9467 48.7924 27.968C49.0484 27.0507 49.3044 26.0373 49.5604 24.928C49.8164 23.7973 50.0724 22.624 50.3284 21.408C50.6057 20.1707 50.8617 18.9227 51.0964 17.664C51.3524 16.4053 51.5977 15.1893 51.8324 14.016C52.3657 11.2853 52.8884 8.48 53.4004 5.6L58.3924 4.8C57.8377 7.65867 57.283 10.464 56.7284 13.216C56.4937 14.3893 56.2484 15.6053 55.9924 16.864C55.7577 18.1227 55.523 19.3707 55.2884 20.608C55.075 21.8453 54.851 23.0507 54.6164 24.224C54.403 25.376 54.211 26.4213 54.0404 27.36ZM69.1826 26.72C68.9906 26.72 68.5853 26.7307 67.9666 26.752C67.348 26.7733 66.612 26.8053 65.7586 26.848C64.9266 26.8907 64.02 26.944 63.0386 27.008C62.0573 27.072 61.0973 27.1467 60.1586 27.232C59.22 27.296 58.3453 27.3707 57.5346 27.456C56.7453 27.5413 56.116 27.6267 55.6466 27.712L55.6786 23.04L64.7666 10.656C64.404 10.656 63.892 10.6987 63.2306 10.784C62.5693 10.848 61.8973 10.9227 61.2146 11.008C60.5533 11.0933 59.9773 11.1787 59.4866 11.264L58.7186 11.328L59.3266 6.304L72.4146 5.376L71.5826 9.792L62.8466 22.208C63.2733 22.208 63.8386 22.1867 64.5426 22.144C65.268 22.1013 66.0146 22.0587 66.7826 22.016C67.5506 21.9733 68.3826 21.92 69.2786 21.856L69.1826 26.72ZM82.9639 26.72C82.7719 26.72 82.3665 26.7307 81.7479 26.752C81.1292 26.7733 80.3932 26.8053 79.5399 26.848C78.7079 26.8907 77.8012 26.944 76.8199 27.008C75.8385 27.072 74.8785 27.1467 73.9399 27.232C73.0012 27.296 72.1265 27.3707 71.3159 27.456C70.5265 27.5413 69.8972 27.6267 69.4279 27.712L69.4599 23.04L78.5479 10.656C78.1852 10.656 77.6732 10.6987 77.0119 10.784C76.3505 10.848 75.6785 10.9227 74.9959 11.008C74.3345 11.0933 73.7585 11.1787 73.2679 11.264L72.4999 11.328L73.1079 6.304L86.1959 5.376L85.3639 9.792L76.6279 22.208C77.0545 22.208 77.6199 22.1867 78.3239 22.144C79.0492 22.1013 79.7959 22.0587 80.5639 22.016C81.3319 21.9733 82.1639 21.92 83.0599 21.856L82.9639 26.72ZM91.7851 26.976C91.1238 26.976 90.4198 26.9973 89.6731 27.04C88.9478 27.0827 88.2118 27.1467 87.4651 27.232C86.7185 27.3173 85.9825 27.4347 85.2571 27.584C84.5531 27.712 83.9131 27.872 83.3371 28.064C83.4651 27.104 83.6145 26.0373 83.7851 24.864C83.9558 23.6907 84.1478 22.4747 84.3611 21.216C84.5958 19.9573 84.8198 18.688 85.0331 17.408C85.2678 16.128 85.5025 14.9013 85.7371 13.728C86.2705 10.9333 86.8358 8.08533 87.4331 5.184L93.0331 4.448C92.4571 6.92267 91.9025 9.33333 91.3691 11.68C91.1345 12.6827 90.8998 13.728 90.6651 14.816C90.4305 15.8827 90.2065 16.928 89.9931 17.952C89.7798 18.976 89.5878 19.968 89.4171 20.928C89.2465 21.888 89.1078 22.7413 89.0011 23.488C89.5345 23.4453 90.0998 23.424 90.6971 23.424C91.3158 23.4027 91.8598 23.392 92.3291 23.392C92.3505 23.7973 92.3825 24.2027 92.4251 24.608C92.4678 24.992 92.5105 25.344 92.5531 25.664C92.6171 25.984 92.6598 26.272 92.6811 26.528C92.7238 26.7627 92.7558 26.9227 92.7771 27.008C92.6065 27.008 92.4358 27.008 92.2651 27.008C92.1158 26.9867 91.9558 26.976 91.7851 26.976ZM93.3859 27.52L94.8579 21.088C94.8579 20.1707 94.8365 19.1787 94.7939 18.112C94.7725 17.024 94.7299 15.936 94.6659 14.848C94.6019 13.76 94.5379 12.7147 94.4739 11.712C94.4099 10.688 94.3565 9.792 94.3139 9.024C94.2712 8.23466 94.2285 7.60533 94.1859 7.136C94.1432 6.66667 94.1219 6.432 94.1219 6.432L99.3379 4.448V8.352C99.3379 8.88533 99.3379 9.42933 99.3379 9.984C99.3379 10.5387 99.3272 11.0827 99.3059 11.616C99.3059 12.1493 99.3059 12.6507 99.3059 13.12C99.3059 13.5893 99.3059 13.984 99.3059 14.304C99.5832 13.5787 99.9139 12.6827 100.298 11.616C100.703 10.5493 101.077 9.51467 101.418 8.512C101.823 7.33867 102.239 6.10133 102.666 4.8L107.626 5.92C106.709 7.75467 105.813 9.57867 104.938 11.392C104.575 12.1813 104.191 13.0027 103.786 13.856C103.381 14.688 102.975 15.5307 102.57 16.384C102.165 17.216 101.77 18.0267 101.386 18.816C101.002 19.6053 100.65 20.3413 100.33 21.024C100.223 21.5787 100.085 22.1867 99.9139 22.848C99.7645 23.5093 99.6152 24.1387 99.4659 24.736C99.2739 25.44 99.0712 26.144 98.8579 26.848L93.3859 27.52Z" fill="white"/>
<path d="M28.5824 36.848V48H27.1264V42.944H21.4464V48H19.9904V36.848H21.4464V41.744H27.1264V36.848H28.5824ZM40.5406 45.52H35.6766L34.7806 48H33.2446L37.2766 36.912H38.9566L42.9726 48H41.4366L40.5406 45.52ZM40.1246 44.336L38.1086 38.704L36.0926 44.336H40.1246ZM49.0338 36.848V43.904C49.0338 44.896 49.2738 45.632 49.7538 46.112C50.2445 46.592 50.9218 46.832 51.7858 46.832C52.6391 46.832 53.3058 46.592 53.7858 46.112C54.2765 45.632 54.5218 44.896 54.5218 43.904V36.848H55.9778V43.888C55.9778 44.816 55.7911 45.6 55.4178 46.24C55.0445 46.8693 54.5378 47.3387 53.8978 47.648C53.2685 47.9573 52.5591 48.112 51.7698 48.112C50.9805 48.112 50.2658 47.9573 49.6258 47.648C48.9965 47.3387 48.4951 46.8693 48.1218 46.24C47.7591 45.6 47.5778 44.816 47.5778 43.888V36.848H49.0338ZM62.7427 46.816H66.6467V48H61.2867V36.848H62.7427V46.816ZM72.5289 36.848V48H71.0729V36.848H72.5289ZM86.6584 48H85.2024L79.3464 39.12V48H77.8904V36.832H79.3464L85.2024 45.696V36.832H86.6584V48ZM100.468 40.08C100.159 39.4293 99.7111 38.928 99.1244 38.576C98.5378 38.2133 97.8551 38.032 97.0764 38.032C96.2978 38.032 95.5938 38.2133 94.9644 38.576C94.3458 38.928 93.8551 39.44 93.4924 40.112C93.1404 40.7733 92.9644 41.5413 92.9644 42.416C92.9644 43.2907 93.1404 44.0587 93.4924 44.72C93.8551 45.3813 94.3458 45.8933 94.9644 46.256C95.5938 46.608 96.2978 46.784 97.0764 46.784C98.1644 46.784 99.0604 46.4587 99.7644 45.808C100.468 45.1573 100.879 44.2773 100.996 43.168H96.5484V41.984H102.548V43.104C102.463 44.0213 102.175 44.864 101.684 45.632C101.194 46.3893 100.548 46.992 99.7484 47.44C98.9484 47.8773 98.0578 48.096 97.0764 48.096C96.0418 48.096 95.0978 47.856 94.2444 47.376C93.3911 46.8853 92.7138 46.208 92.2124 45.344C91.7218 44.48 91.4764 43.504 91.4764 42.416C91.4764 41.328 91.7218 40.352 92.2124 39.488C92.7138 38.6133 93.3911 37.936 94.2444 37.456C95.0978 36.9653 96.0418 36.72 97.0764 36.72C98.2604 36.72 99.3058 37.0133 100.212 37.6C101.13 38.1867 101.796 39.0133 102.212 40.08H100.468Z" fill="white"/>
<line x1="29" y1="32.5" x2="93" y2="32.5" stroke="white"/>
</svg>
