<svg width="357" height="228" viewBox="0 0 357 228" fill="none" xmlns="http://www.w3.org/2000/svg">
<path d="M70.3195 64.232C69.7222 72.936 68.0155 80.5307 65.1995 87.016C62.3835 93.416 58.9702 98.792 54.9595 103.144C51.0342 107.496 46.7675 110.739 42.1595 112.872C37.6368 115.005 33.3275 116.072 29.2315 116.072C26.0742 116.072 23.0448 115.389 20.1435 114.024C17.3275 112.659 14.8528 110.611 12.7195 107.88C10.6715 105.064 9.05017 101.565 7.8555 97.384C6.66083 93.2027 6.0635 88.296 6.0635 82.664C6.0635 71.656 7.64217 62.056 10.7995 53.864C13.9568 45.672 17.9248 38.8453 22.7035 33.384C27.5675 27.9227 32.7302 23.8693 38.1915 21.224C43.7382 18.5787 48.9008 17.256 53.6795 17.256C57.0928 17.256 60.0368 17.8533 62.5115 19.048C65.0715 20.2427 67.1622 21.864 68.7835 23.912C70.4048 25.8747 71.5568 28.2213 72.2395 30.952C73.0075 33.5973 73.3915 36.4133 73.3915 39.4L55.8555 42.728C55.0875 39.3147 54.0635 36.8827 52.7835 35.432C51.5035 33.9813 50.0528 33.256 48.4315 33.256C46.2982 33.256 43.9515 34.792 41.3915 37.864C38.8315 40.8507 36.4422 44.7333 34.2235 49.512C32.0048 54.2907 30.1275 59.5387 28.5915 65.256C27.0555 70.9733 26.2022 76.6053 26.0315 82.152C26.0315 87.4427 26.7995 91.24 28.3355 93.544C29.9568 95.7627 32.0048 96.872 34.4795 96.872C36.1862 96.872 37.9355 96.4453 39.7275 95.592C41.6048 94.7387 43.2688 93.544 44.7195 92.008C46.1702 90.3867 47.3648 88.552 48.3035 86.504C49.3275 84.3707 49.8822 82.0667 49.9675 79.592L36.2715 81.64L38.7035 68.968C42.7142 68.456 46.6395 67.944 50.4795 67.432C53.7222 67.0053 57.1355 66.4933 60.7195 65.896C64.3888 65.2987 67.5888 64.744 70.3195 64.232ZM65.0745 113.128C67.3785 101.779 69.5972 90.6853 71.7305 79.848C72.4985 75.24 73.3518 70.4613 74.2905 65.512C75.2292 60.4773 76.0825 55.528 76.8505 50.664C77.7038 45.7147 78.4718 40.9787 79.1545 36.456C79.9225 31.848 80.5198 27.6667 80.9465 23.912C85.8105 22.376 91.0585 21.2667 96.6905 20.584C102.323 19.816 107.912 19.432 113.459 19.432C116.787 19.432 119.517 19.816 121.651 20.584C123.869 21.352 125.576 22.4613 126.771 23.912C128.051 25.2773 128.947 26.8987 129.459 28.776C129.971 30.6533 130.227 32.744 130.227 35.048C130.227 38.4613 129.629 41.832 128.435 45.16C127.24 48.4027 125.619 51.5173 123.571 54.504C121.608 57.4053 119.304 60.0933 116.659 62.568C114.099 64.9573 111.325 66.92 108.339 68.456C109.875 71.8693 111.496 75.624 113.203 79.72C114.995 83.7307 116.659 87.5707 118.195 91.24C119.901 95.5067 121.651 99.7733 123.443 104.04L103.603 110.952C101.896 105.064 100.36 99.5173 98.9945 94.312C98.3972 92.1787 97.7998 90.0027 97.2025 87.784C96.6052 85.48 96.0505 83.3467 95.5385 81.384C95.0265 79.336 94.5998 77.544 94.2585 76.008C93.9172 74.472 93.7038 73.2773 93.6185 72.424L91.9545 72.936C91.4425 75.6667 90.8025 78.9947 90.0345 82.92C89.3518 86.8453 88.7118 90.6427 88.1145 94.312C87.3465 98.664 86.5785 103.144 85.8105 107.752L65.0745 113.128ZM95.1545 57.576C96.7758 57.4053 98.7385 56.7227 101.043 55.528C103.432 54.3333 105.693 52.9253 107.827 51.304C109.96 49.5973 111.795 47.848 113.331 46.056C114.867 44.264 115.635 42.6853 115.635 41.32C115.635 40.3813 115.336 39.656 114.739 39.144C114.141 38.5467 113.288 38.12 112.179 37.864C111.155 37.5227 110.003 37.3093 108.723 37.224C107.443 37.1387 106.12 37.096 104.755 37.096C103.816 37.096 102.835 37.1387 101.811 37.224C100.872 37.224 100.019 37.224 99.2505 37.224L95.1545 57.576ZM141.662 110.44C140.894 110.44 139.4 110.568 137.182 110.824C134.963 110.995 132.659 111.251 130.27 111.592C127.88 111.848 125.704 112.104 123.742 112.36C121.864 112.616 120.84 112.787 120.669 112.872C121.694 109.203 122.718 105.149 123.742 100.712C124.766 96.1893 125.79 91.496 126.814 86.632C127.923 81.6827 128.947 76.6907 129.885 71.656C130.91 66.6213 131.891 61.7573 132.83 57.064C134.963 46.1413 137.054 34.92 139.102 23.4L159.069 20.2C156.851 31.6347 154.632 42.856 152.414 53.864C151.475 58.5573 150.494 63.4213 149.47 68.456C148.531 73.4907 147.592 78.4827 146.654 83.432C145.8 88.3813 144.904 93.2027 143.966 97.896C143.112 102.504 142.344 106.685 141.662 110.44ZM202.231 107.88C201.463 107.88 199.841 107.923 197.367 108.008C194.892 108.093 191.948 108.221 188.535 108.392C185.207 108.563 181.58 108.776 177.655 109.032C173.729 109.288 169.889 109.587 166.135 109.928C162.38 110.184 158.881 110.483 155.639 110.824C152.481 111.165 149.964 111.507 148.087 111.848L148.215 93.16L184.567 43.624C183.116 43.624 181.068 43.7947 178.423 44.136C175.777 44.392 173.089 44.6907 170.359 45.032C167.713 45.3733 165.409 45.7147 163.447 46.056L160.375 46.312L162.807 26.216L215.159 22.504L211.831 40.168L176.887 89.832C178.593 89.832 180.855 89.7467 183.671 89.576C186.572 89.4053 189.559 89.2347 192.631 89.064C195.703 88.8933 199.031 88.68 202.615 88.424L202.231 107.88ZM257.356 107.88C256.588 107.88 254.966 107.923 252.492 108.008C250.017 108.093 247.073 108.221 243.66 108.392C240.332 108.563 236.705 108.776 232.78 109.032C228.854 109.288 225.014 109.587 221.26 109.928C217.505 110.184 214.006 110.483 210.764 110.824C207.606 111.165 205.089 111.507 203.212 111.848L203.34 93.16L239.692 43.624C238.241 43.624 236.193 43.7947 233.548 44.136C230.902 44.392 228.214 44.6907 225.484 45.032C222.838 45.3733 220.534 45.7147 218.572 46.056L215.5 46.312L217.932 26.216L270.284 22.504L266.956 40.168L232.012 89.832C233.718 89.832 235.98 89.7467 238.796 89.576C241.697 89.4053 244.684 89.2347 247.756 89.064C250.828 88.8933 254.156 88.68 257.74 88.424L257.356 107.88ZM292.641 108.904C289.995 108.904 287.179 108.989 284.193 109.16C281.291 109.331 278.347 109.587 275.361 109.928C272.374 110.269 269.43 110.739 266.529 111.336C263.713 111.848 261.153 112.488 258.849 113.256C259.361 109.416 259.958 105.149 260.641 100.456C261.323 95.7627 262.091 90.8987 262.945 85.864C263.883 80.8293 264.779 75.752 265.633 70.632C266.571 65.512 267.51 60.6053 268.449 55.912C270.582 44.7333 272.843 33.3413 275.233 21.736L297.633 18.792C295.329 28.6907 293.11 38.3333 290.977 47.72C290.038 51.7307 289.099 55.912 288.161 60.264C287.222 64.5307 286.326 68.712 285.473 72.808C284.619 76.904 283.851 80.872 283.169 84.712C282.486 88.552 281.931 91.9653 281.505 94.952C283.638 94.7813 285.899 94.696 288.289 94.696C290.763 94.6107 292.939 94.568 294.817 94.568C294.902 96.1893 295.03 97.8107 295.201 99.432C295.371 100.968 295.542 102.376 295.713 103.656C295.969 104.936 296.139 106.088 296.225 107.112C296.395 108.051 296.523 108.691 296.609 109.032C295.926 109.032 295.243 109.032 294.561 109.032C293.963 108.947 293.323 108.904 292.641 108.904ZM299.044 111.08L304.932 85.352C304.932 81.6827 304.846 77.7147 304.676 73.448C304.59 69.096 304.42 64.744 304.164 60.392C303.908 56.04 303.652 51.8587 303.396 47.848C303.14 43.752 302.926 40.168 302.756 37.096C302.585 33.9387 302.414 31.4213 302.244 29.544C302.073 27.6667 301.988 26.728 301.988 26.728L322.852 18.792V34.408C322.852 36.5413 322.852 38.7173 322.852 40.936C322.852 43.1547 322.809 45.3307 322.724 47.464C322.724 49.5973 322.724 51.6027 322.724 53.48C322.724 55.3573 322.724 56.936 322.724 58.216C323.833 55.3147 325.156 51.7307 326.692 47.464C328.313 43.1973 329.806 39.0587 331.172 35.048C332.793 30.3547 334.457 25.4053 336.164 20.2L356.004 24.68C352.334 32.0187 348.75 39.3147 345.252 46.568C343.801 49.7253 342.265 53.0107 340.644 56.424C339.022 59.752 337.401 63.1227 335.78 66.536C334.158 69.864 332.58 73.1067 331.044 76.264C329.508 79.4213 328.1 82.3653 326.819 85.096C326.393 87.3147 325.838 89.7467 325.156 92.392C324.558 95.0373 323.961 97.5547 323.364 99.944C322.596 102.76 321.785 105.576 320.932 108.392L299.044 111.08Z" fill="white"/>
<line x1="89.0488" y1="136" x2="249.951" y2="136" stroke="white" stroke-width="6"/>
<path d="M53.1825 157.52V202H45.8865V182.544H24.9585V202H17.6625V157.52H24.9585V176.592H45.8865V157.52H53.1825ZM96.0035 192.912H77.3795L74.1795 202H66.5635L82.4995 157.456H90.9475L106.884 202H99.2035L96.0035 192.912ZM93.9555 186.96L86.7235 166.288L79.4275 186.96H93.9555ZM127.445 157.52V185.872C127.445 189.243 128.319 191.781 130.069 193.488C131.861 195.195 134.335 196.048 137.493 196.048C140.693 196.048 143.167 195.195 144.917 193.488C146.709 191.781 147.605 189.243 147.605 185.872V157.52H154.901V185.744C154.901 189.371 154.111 192.443 152.533 194.96C150.954 197.477 148.842 199.355 146.197 200.592C143.551 201.829 140.629 202.448 137.429 202.448C134.229 202.448 131.306 201.829 128.661 200.592C126.058 199.355 123.989 197.477 122.453 194.96C120.917 192.443 120.149 189.371 120.149 185.744V157.52H127.445ZM178.096 196.112H193.136V202H170.8V157.52H178.096V196.112ZM212.934 157.52V202H205.638V157.52H212.934ZM265.457 202H258.161L236.209 168.784V202H228.913V157.456H236.209L258.161 190.608V157.456H265.457V202ZM313.63 170.32C312.478 168.101 310.878 166.437 308.83 165.328C306.782 164.176 304.414 163.6 301.726 163.6C298.782 163.6 296.158 164.261 293.854 165.584C291.55 166.907 289.736 168.784 288.414 171.216C287.134 173.648 286.494 176.464 286.494 179.664C286.494 182.864 287.134 185.701 288.414 188.176C289.736 190.608 291.55 192.485 293.854 193.808C296.158 195.131 298.782 195.792 301.726 195.792C305.694 195.792 308.915 194.683 311.39 192.464C313.864 190.245 315.379 187.237 315.934 183.44H299.23V177.616H323.742V183.312C323.272 186.768 322.035 189.947 320.03 192.848C318.067 195.749 315.486 198.075 312.286 199.824C309.128 201.531 305.608 202.384 301.726 202.384C297.544 202.384 293.726 201.424 290.27 199.504C286.814 197.541 284.062 194.832 282.014 191.376C280.008 187.92 279.006 184.016 279.006 179.664C279.006 175.312 280.008 171.408 282.014 167.952C284.062 164.496 286.814 161.808 290.27 159.888C293.768 157.925 297.587 156.944 301.726 156.944C306.462 156.944 310.664 158.117 314.334 160.464C318.046 162.768 320.734 166.053 322.398 170.32H313.63Z" fill="white"/>
</svg>
